<svg width="240" height="240" viewBox="0 0 240 240" xmlns="http://www.w3.org/2000/svg">
  <rect width="240" height="240" fill="none"/>
  <circle cx="120" cy="120" r="90" fill="rgba(255,255,255,0.04)"/>
  <g transform="translate(120 120)">
    <circle cx="0" cy="0" r="12" fill="#111827"/>
    <circle cx="0" cy="0" r="22" fill="none" stroke="#fdf2f8" stroke-opacity="0.35" stroke-width="2"/>
    <path d="M0 0 L-30 -58" stroke="#111827" stroke-width="4" stroke-linecap="round"/>
    <path d="M0 0 L-46 -26" stroke="#111827" stroke-width="4" stroke-linecap="round"/>
    <path d="M0 0 L-20 44" stroke="#111827" stroke-width="4" stroke-linecap="round"/>
    <path d="M0 0 L24 44" stroke="#111827" stroke-width="4" stroke-linecap="round"/>
    <path d="M0 0 L46 -24" stroke="#111827" stroke-width="4" stroke-linecap="round"/>
    <path d="M0 0 L28 56" stroke="#111827" stroke-width="4" stroke-linecap="round"/>
    <path d="M-30 -58 L-52 -96" stroke="#111827" stroke-width="3" stroke-linecap="round"/>
    <path d="M-46 -26 L-82 -42" stroke="#111827" stroke-width="3" stroke-linecap="round"/>
    <path d="M-20 44 L-34 82" stroke="#111827" stroke-width="3" stroke-linecap="round"/>
    <path d="M24 44 L42 82" stroke="#111827" stroke-width="3" stroke-linecap="round"/>
    <path d="M46 -24 L78 -36" stroke="#111827" stroke-width="3" stroke-linecap="round"/>
    <path d="M28 56 L56 92" stroke="#111827" stroke-width="3" stroke-linecap="round"/>
    <circle cx="-30" cy="-58" r="3.5" fill="#fef2f2"/>
    <circle cx="-46" cy="-26" r="3.5" fill="#fef2f2"/>
    <circle cx="-20" cy="44" r="3.5" fill="#fef2f2"/>
    <circle cx="24" cy="44" r="3.5" fill="#fef2f2"/>
    <circle cx="46" cy="-24" r="3.5" fill="#fef2f2"/>
    <circle cx="28" cy="56" r="3.5" fill="#fef2f2"/>
  </g>
  <path d="M74 64c18-12 54-12 72 0" stroke="#8b5cf6" stroke-opacity="0.4" stroke-width="3" stroke-linecap="round" fill="none"/>
  <path d="M78 176c24 12 60 12 84 0" stroke="#22d3ee" stroke-opacity="0.35" stroke-width="3" stroke-linecap="round" fill="none"/>
</svg>